<?xml version="1.0" standalone="no"?>
<!DOCTYPE svg PUBLIC "-//W3C//DTD SVG 20010904//EN"
 "http://www.w3.org/TR/2001/REC-SVG-20010904/DTD/svg10.dtd">
<svg version="1.0" xmlns="http://www.w3.org/2000/svg"
 width="225.000000pt" height="225.000000pt" viewBox="0 0 225.000000 225.000000"
 preserveAspectRatio="xMidYMid meet">
<metadata>
Created by potrace 1.10, written by Peter Selinger 2001-2011
</metadata>
<g transform="translate(0.000000,225.000000) scale(0.050000,-0.050000)"
fill="#000000" stroke="none">
<path d="M970 3498 c-33 -22 -125 -76 -205 -121 l-145 -81 0 -257 0 -258 85
-43 c47 -24 108 -58 135 -77 28 -19 91 -57 141 -86 l90 -51 220 126 219 126 5
257 5 257 -217 125 c-240 138 -247 139 -333 83z m196 -250 c241 -115 140 -468
-125 -441 -233 24 -286 337 -75 441 81 40 117 40 200 0z"/>
<path d="M381 2609 c-104 -60 -197 -109 -205 -109 -9 0 -16 -124 -15 -275 l0
-275 209 -117 c242 -134 203 -135 465 14 l205 117 0 259 0 258 -55 24 c-30 14
-125 67 -210 120 -188 116 -165 117 -394 -16z m335 -190 c253 -154 46 -537
-222 -410 -172 82 -175 336 -5 420 83 41 149 38 227 -10z"/>
<path d="M1750 2682 c-434 -113 -503 -702 -105 -905 160 -81 379 -63 515 43
l50 38 -93 94 c-90 91 -94 92 -139 61 -95 -67 -269 -22 -316 81 -94 207 104
416 300 318 l66 -33 91 90 c87 87 88 91 50 120 -114 86 -293 126 -419 93z"/>
<path d="M2410 2210 l0 -490 125 0 125 0 0 490 0 490 -125 0 -125 0 0 -490z"/>
<path d="M2860 2210 l0 -490 130 0 130 0 0 490 0 490 -130 0 -130 0 0 -490z"/>
<path d="M3300 2210 l0 -490 129 0 130 0 5 248 6 249 126 -117 127 -117 54 54
c30 29 88 85 130 123 l75 70 -6 -255 -6 -255 130 0 130 0 0 490 0 490 -57 0
c-44 0 -100 -41 -250 -180 -106 -99 -198 -180 -204 -180 -7 0 -98 81 -204 180
-156 146 -203 180 -253 180 l-62 0 0 -490z"/>
<path d="M932 1829 c-65 -39 -161 -93 -215 -120 l-97 -50 0 -256 0 -257 224
-130 224 -129 226 132 225 131 1 253 0 254 -212 121 c-250 144 -227 141 -376
51z m263 -229 c215 -131 72 -484 -174 -430 -206 45 -257 307 -83 424 84 57
171 58 257 6z"/>
</g>
</svg>
